<svg xmlns="http://www.w3.org/2000/svg" version="1.1" xmlns:xlink="http://www.w3.org/1999/xlink" xmlns:svgjs="http://svgjs.dev/svgjs" width="100%" height="100%" viewBox="0 0 1000 600"><rect width="1000" height="600" x="0" y="0" fill="#00214d"/><g><circle r="166.66666666666666" cx="382.5924173990885" cy="404.81463604756357" fill="blu" transform="matrix(0.5789025985130781,0,0,0.5789025985130781,0,65.65174342620038)"/><path d="M309.2749965947365 479.81458732194307L309.2749965947365 473.08419303211195L317.0881064877143 473.08419303211195Q329.49544204809865 473.08419303211195 335.2016459025207 457.6920739171068L335.2016459025207 457.6920739171068L380.50012573147103 329.81458241031555L385.7673908278606 329.81458241031555L431.47554683097457 463.80795394569253Q433.5824528695304 469.0752190420821 436.53797384028235 471.0650747451626Q439.4934948110343 473.08419303211195 444.1169830623096 473.08419303211195L444.1169830623096 473.08419303211195L455.90980436144844 473.08419303211195L455.90980436144844 479.81458732194307L390.5957171662177 479.81458732194307L390.5957171662177 473.08419303211195L404.5247070877813 473.08419303211195Q407.685066145615 473.08419303211195 409.79197218417085 471.50401350319504Q411.8988782227267 469.92383397427824 411.8988782227267 467.8169279357224L411.8988782227267 467.8169279357224Q411.8988782227267 465.06624505205224 411.05026329053055 463.16417710057823L411.05026329053055 463.16417710057823L401.1302473589969 435.159884338107L351.8520561238855 435.159884338107L346.7896291145778 449.26444976288354Q343.8341081438258 457.6920739171068 343.8341081438258 461.49620982005484L343.8341081438258 461.49620982005484Q343.8341081438258 466.11969807133016 346.1458522694635 469.60194555172103Q348.4575963951011 473.08419303211195 354.16380024952315 473.08419303211195L354.16380024952315 473.08419303211195L367.01007456793997 473.08419303211195L367.01007456793997 479.81458732194307L309.2749965947365 479.81458732194307ZM376.90082791560485 364.13959328845425L354.16380024952315 428.40022746440707L398.8185032333592 428.40022746440707L376.90082791560485 364.13959328845425Z " fill="white" transform="matrix(0.5789025985130781,0,0,0.5789025985130781,0,65.65174342620038)"/><path d="M632.5924024895398 442.9279304986921L632.5924024895398 437.9781454900042L638.3384572604948 437.9781454900042Q647.4632783199891 437.9781454900042 651.6598351751809 426.6582023831789L651.6598351751809 426.6582023831789L684.9740403640889 332.6122872181092L688.8477851534968 332.6122872181092L722.4632816038031 431.15605049976915Q724.0127795195663 435.02979528917706 726.1863807625118 436.49320998739785Q728.3599820054575 437.9781454900042 731.7602690983822 437.9781454900042L731.7602690983822 437.9781454900042L740.4331532657787 437.9781454900042L740.4331532657787 442.9279304986921L692.3987178771207 442.9279304986921L692.3987178771207 437.9781454900042L702.642620764666 437.9781454900042Q704.9668676383108 437.9781454900042 706.5163655540739 436.8160220531818Q708.0658634698372 435.65389861635947 708.0658634698372 434.1044007005963L708.0658634698372 434.1044007005963Q708.0658634698372 432.08144508834994 707.4417601426547 430.68259280328596L707.4417601426547 430.68259280328596L700.1462074559365 410.08718300626725L663.905172870587 410.08718300626725L660.1820737118783 420.4602107201262Q658.0084724689327 426.6582023831789 658.0084724689327 429.4559069533068L658.0084724689327 429.4559069533068Q658.0084724689327 432.8561940462315 659.7086160153951 435.41716976811784Q661.4087595618576 437.9781454900042 665.6053164170494 437.9781454900042L665.6053164170494 437.9781454900042L675.0529495423275 437.9781454900042L675.0529495423275 442.9279304986921L632.5924024895398 442.9279304986921ZM682.3269814246602 357.8561907624174L665.6053164170494 405.1158771931938L698.4460639094741 405.1158771931938L682.3269814246602 357.8561907624174ZM781.6670144685874 444.7787196758536Q772.6713182354067 444.7787196758536 765.7846608320149 439.82893466716575Q758.8764826242375 434.87914965847784 755.0888210523719 426.35691112178046Q751.2796386761208 417.83467258508307 751.2796386761208 407.5907696975377L751.2796386761208 407.5907696975377Q751.2796386761208 397.368387614378 755.1533834655287 388.8461490776806Q759.0271282549367 380.3239105409832 765.935306462714 375.37412553229535Q772.8219638661059 370.40281971922184 781.6670144685874 370.40281971922184L781.6670144685874 370.40281971922184Q788.7904007202208 370.40281971922184 794.0629977946926 373.43725313759137Q799.3140740647789 376.4501657515753 802.1117786349067 381.1847427164072Q804.9094832050347 385.89779887685347 804.9094832050347 390.71845905922777L804.9094832050347 390.71845905922777Q804.9094832050347 395.51759843721646 802.4130698963052 398.22921978980196Q799.9381773919612 400.9408411423875 796.3872446683373 400.9408411423875L796.3872446683373 400.9408411423875Q793.288248836811 400.9408411423875 791.1792100070223 398.9178855301412Q789.0916919816192 396.9164507222804 789.0916919816192 394.1187461521525L789.0916919816192 394.1187461521525Q789.0916919816192 391.3210415820245 790.6411898973823 389.470252404863Q792.1906878131455 387.61946322770143 794.364289056091 386.9953599005191L794.364289056091 386.9953599005191Q796.8391815604349 386.22061094263745 796.8391815604349 384.1976553303911L796.8391815604349 384.1976553303911Q796.8391815604349 382.34686615322954 795.2251212315149 380.02261927958483Q793.5895400982095 377.69837240594006 790.1892530052847 375.9121456419353Q786.7674451079744 374.1259188779306 781.6670144685874 374.1259188779306L781.6670144685874 374.1259188779306Q771.8965692775251 374.1259188779306 768.410198967058 382.49751178392876Q764.9238286565909 390.8691046899269 764.9238286565909 407.5907696975377L764.9238286565909 407.5907696975377Q764.9238286565909 424.3339555095341 768.3241157495156 432.7055484155323Q771.745923646826 441.0771413215305 781.6670144685874 441.0771413215305L781.6670144685874 441.0771413215305Q791.1146475938655 441.0771413215305 796.2150782332525 434.4056919619947Q801.3370296770253 427.73424260245883 802.4130698963052 418.76006717366386L802.4130698963052 418.76006717366386L806.136169055014 418.76006717366386Q805.6842321629164 425.1087044674157 802.8865275927884 431.06996728222674Q800.0888230226604 437.03123009703785 794.6655803174893 440.9049748864457Q789.2423376123182 444.7787196758536 781.6670144685874 444.7787196758536L781.6670144685874 444.7787196758536ZM843.3241190333298 444.7787196758536Q836.3513784123955 444.7787196758536 831.7889678826485 439.82893466716575Q827.2050365485157 434.87914965847784 827.2050365485157 426.35691112178046L827.2050365485157 426.35691112178046L827.2050365485157 376.6008113822745L815.7559686153769 376.6008113822745L815.7559686153769 372.275129700769L819.1562557083016 372.275129700769Q826.1289963292357 372.275129700769 830.0888243361861 364.7643689701948Q834.0271315387508 357.232087435235 834.0271315387508 348.1072663757408L834.0271315387508 348.1072663757408L834.0271315387508 342.51185723548497L838.3743340246419 342.51185723548497L838.3743340246419 372.275129700769L857.5924123409823 372.275129700769L857.5924123409823 376.6008113822745L838.3743340246419 376.6008113822745L838.3743340246419 427.131660079662Q838.3743340246419 431.78015382695156 840.2251232018035 434.87914965847784Q842.0974331833506 437.9781454900042 846.5737604955553 437.9781454900042L846.5737604955553 437.9781454900042Q857.5924123409823 437.9781454900042 857.5924123409823 419.38417050084627L857.5924123409823 419.38417050084627L860.3685961067246 419.38417050084627Q860.3685961067246 429.75719821470517 857.3556834927407 437.2679589452794Q854.321250074371 444.7787196758536 843.3241190333298 444.7787196758536L843.3241190333298 444.7787196758536ZM886.0859573475159 353.0570513844287Q882.6856702545912 353.0570513844287 880.3614233809465 350.7328045107839Q878.0371765073018 348.4085576371392 878.0371765073018 345.0082705442145L878.0371765073018 345.0082705442145Q878.0371765073018 341.43581701620496 880.3614233809465 339.19765336010266Q882.6856702545912 336.9379688996147 886.0859573475159 336.9379688996147L886.0859573475159 336.9379688996147Q889.6584108755254 336.9379688996147 891.8965745316278 339.19765336010266Q894.1562589921158 341.43581701620496 894.1562589921158 345.0082705442145L894.1562589921158 345.0082705442145Q894.1562589921158 348.4085576371392 891.8965745316278 350.7328045107839Q889.6584108755254 353.0570513844287 886.0859573475159 353.0570513844287L886.0859573475159 353.0570513844287ZM871.5378935828506 442.9279304986921L871.5378935828506 439.2048313399834L878.0371765073018 439.2048313399834Q879.8879656844632 439.2048313399834 880.6627146423449 438.4300823821018Q881.4374636002265 437.6553334242202 881.4374636002265 435.80454424705863L881.4374636002265 435.80454424705863L881.4374636002265 379.3985159524024Q881.4374636002265 377.5477267752409 880.6627146423449 376.77297781735933Q879.8879656844632 375.9982288594777 878.0371765073018 375.9982288594777L878.0371765073018 375.9982288594777L871.5378935828506 375.9982288594777L871.5378935828506 372.275129700769L892.6067610763525 372.275129700769L892.6067610763525 435.80454424705863Q892.6067610763525 437.6553334242202 893.3815100342341 438.4300823821018Q894.1562589921158 439.2048313399834 896.0070481692773 439.2048313399834L896.0070481692773 439.2048313399834L902.5278518981139 439.2048313399834L902.5278518981139 442.9279304986921L871.5378935828506 442.9279304986921ZM948.3886860438264 444.7787196758536L922.8219704337342 383.7457184382935Q921.2724725179711 379.69980721380085 919.6368913846655 377.8490180366393Q918.0228310557455 375.9982288594777 914.7516687891344 375.9982288594777L914.7516687891344 375.9982288594777L910.2753414769298 375.9982288594777L910.2753414769298 372.275129700769L943.7401922965369 372.275129700769L943.7401922965369 375.9982288594777L939.3929898106459 375.9982288594777Q937.5422006334842 375.9982288594777 935.992702717721 376.9881858612153Q934.4432048019579 377.99966366733844 934.4432048019579 379.69980721380085L934.4432048019579 379.69980721380085Q934.4432048019579 382.34686615322954 935.3685993905386 384.8217586575735L935.3685993905386 384.8217586575735L952.714367725332 426.6582023831789L965.2825174865219 389.9437101013462Q965.8851000093188 388.071400119799 966.4446409233443 385.74715324615426Q966.9826610329843 383.42290637250954 966.9826610329843 382.02405408744556L966.9826610329843 382.02405408744556Q966.9826610329843 379.3985159524024 965.4331631172212 377.69837240594006Q963.883665201458 375.9982288594777 961.408772697114 375.9982288594777L961.408772697114 375.9982288594777L957.6856735384054 375.9982288594777L957.6856735384054 372.275129700769L985.8779272835407 372.275129700769L985.8779272835407 375.9982288594777L982.3269945599167 375.9982288594777Q978.9051866626064 375.9982288594777 976.0429196793217 378.23639251558006Q973.180652696037 380.4745561716824 971.6311547802738 385.1230499189719L971.6311547802738 385.1230499189719L951.1648698095687 444.7787196758536L948.3886860438264 444.7787196758536ZM1010.0457906085688 353.0570513844287Q1006.6455035156442 353.0570513844287 1004.3212566419994 350.7328045107839Q1001.9970097683547 348.4085576371392 1001.9970097683547 345.0082705442145L1001.9970097683547 345.0082705442145Q1001.9970097683547 341.43581701620496 1004.3212566419994 339.19765336010266Q1006.6455035156442 336.9379688996147 1010.0457906085688 336.9379688996147L1010.0457906085688 336.9379688996147Q1013.6182441365784 336.9379688996147 1015.8564077926807 339.19765336010266Q1018.1160922531686 341.43581701620496 1018.1160922531686 345.0082705442145L1018.1160922531686 345.0082705442145Q1018.1160922531686 348.4085576371392 1015.8564077926807 350.7328045107839Q1013.6182441365784 353.0570513844287 1010.0457906085688 353.0570513844287L1010.0457906085688 353.0570513844287ZM995.4977268439036 442.9279304986921L995.4977268439036 439.2048313399834L1001.9970097683547 439.2048313399834Q1003.8477989455163 439.2048313399834 1004.6225479033977 438.4300823821018Q1005.3972968612794 437.6553334242202 1005.3972968612794 435.80454424705863L1005.3972968612794 435.80454424705863L1005.3972968612794 379.3985159524024Q1005.3972968612794 377.5477267752409 1004.6225479033977 376.77297781735933Q1003.8477989455163 375.9982288594777 1001.9970097683547 375.9982288594777L1001.9970097683547 375.9982288594777L995.4977268439036 375.9982288594777L995.4977268439036 372.275129700769L1016.5665943374055 372.275129700769L1016.5665943374055 435.80454424705863Q1016.5665943374055 437.6553334242202 1017.3413432952871 438.4300823821018Q1018.1160922531686 439.2048313399834 1019.9668814303303 439.2048313399834L1019.9668814303303 439.2048313399834L1026.4876851591669 439.2048313399834L1026.4876851591669 442.9279304986921L995.4977268439036 442.9279304986921ZM1063.3528230716988 444.7787196758536Q1056.3800824507643 444.7787196758536 1051.8176719210173 439.82893466716575Q1047.2337405868848 434.87914965847784 1047.2337405868848 426.35691112178046L1047.2337405868848 426.35691112178046L1047.2337405868848 376.6008113822745L1035.784672653746 376.6008113822745L1035.784672653746 372.275129700769L1039.1849597466705 372.275129700769Q1046.1577003676048 372.275129700769 1050.1175283745551 364.7643689701948Q1054.05583557712 357.232087435235 1054.05583557712 348.1072663757408L1054.05583557712 348.1072663757408L1054.05583557712 342.51185723548497L1058.4030380630109 342.51185723548497L1058.4030380630109 372.275129700769L1077.6211163793512 372.275129700769L1077.6211163793512 376.6008113822745L1058.4030380630109 376.6008113822745L1058.4030380630109 427.131660079662Q1058.4030380630109 431.78015382695156 1060.2538272401725 434.87914965847784Q1062.1261372217195 437.9781454900042 1066.6024645339244 437.9781454900042L1066.6024645339244 437.9781454900042Q1077.6211163793512 437.9781454900042 1077.6211163793512 419.38417050084627L1077.6211163793512 419.38417050084627L1080.3973001450936 419.38417050084627Q1080.3973001450936 429.75719821470517 1077.3843875311095 437.2679589452794Q1074.34995411274 444.7787196758536 1063.3528230716988 444.7787196758536L1063.3528230716988 444.7787196758536ZM1106.437473451669 479.81458921560954Q1100.3901274193154 479.81458921560954 1096.5163826299076 475.94084442620164L1096.5163826299076 475.94084442620164Q1094.4934270176614 474.0685344446545 1093.3313035808387 471.5075587227681Q1092.1691801440165 468.9681038052674 1092.1691801440165 466.1703992351395L1092.1691801440165 466.1703992351395Q1092.1691801440165 464.14744362289315 1092.8793666887414 462.382737663274Q1093.5680324290804 460.5965108992692 1094.6655934527462 459.67111631068843L1094.6655934527462 459.67111631068843Q1096.9898403263905 457.3468694370437 1099.9166697228322 457.3468694370437L1099.9166697228322 457.3468694370437Q1103.4891232508417 457.3468694370437 1105.2753500148465 459.585033093146Q1107.0615767788513 461.82319674924844 1107.0615767788513 465.2450046465587L1107.0615767788513 465.2450046465587Q1107.0615767788513 467.09579382372027 1105.8133701244865 469.5706863280642L1105.8133701244865 469.5706863280642Q1104.8879755359058 471.1201842438274 1104.8879755359058 472.5190365288914L1104.8879755359058 472.5190365288914Q1104.8879755359058 474.8432834025361 1107.986971367432 474.8432834025361L1107.986971367432 474.8432834025361Q1112.6354651147217 474.8432834025361 1115.7990233594046 471.2062674613698Q1118.9841024084735 467.56925152020347 1120.5336003242364 462.59794570713L1120.5336003242364 462.59794570713L1124.7086363750427 449.1259221617447L1102.7143742929602 385.1230499189719Q1100.8635851157987 380.173264910284 1099.1419207649506 378.08574688488085Q1097.4417772184884 375.9982288594777 1093.5680324290804 375.9982288594777L1093.5680324290804 375.9982288594777L1088.4676017896932 375.9982288594777L1088.4676017896932 372.275129700769L1123.4819505250637 372.275129700769L1123.4819505250637 375.9982288594777L1118.5106447119902 375.9982288594777Q1116.6598555348287 375.9982288594777 1115.1103576190653 376.9881858612153Q1113.5608597033024 377.99966366733844 1113.5608597033024 379.69980721380085L1113.5608597033024 379.69980721380085Q1113.5608597033024 382.34686615322954 1114.4862542918831 384.8217586575735L1114.4862542918831 384.8217586575735L1130.6053367766972 432.3827363497483L1143.4747777992857 389.9437101013462Q1144.0773603220823 388.071400119799 1144.6369012361079 385.74715324615426Q1145.1749213457479 383.42290637250954 1145.1749213457479 382.02405408744556L1145.1749213457479 382.02405408744556Q1145.1749213457479 379.3985159524024 1143.625423429985 377.69837240594006Q1142.0759255142216 375.9982288594777 1139.6010330098777 375.9982288594777L1139.6010330098777 375.9982288594777L1135.877933851169 375.9982288594777L1135.877933851169 372.275129700769L1164.0701875963043 372.275129700769L1164.0701875963043 375.9982288594777L1160.5192548726804 375.9982288594777Q1157.09744697537 375.9982288594777 1154.2351799920852 378.23639251558006Q1151.3729130088004 380.4745561716824 1149.8234150930375 385.1230499189719L1149.8234150930375 385.1230499189719L1124.8808028101275 464.4702556886771Q1123.1591384592798 470.19478965524655 1118.3599990812909 474.99392903323525Q1113.5608597033024 479.81458921560954 1106.437473451669 479.81458921560954L1106.437473451669 479.81458921560954ZM1267.886547952436 445.72563506882Q1253.4891298184698 445.72563506882 1243.0945813002254 437.3540421628218Q1232.7215535863666 428.9824492568236 1227.3628732943523 415.42434249389595Q1222.0257138067236 401.8662357309683 1222.0257138067236 386.84471426981986L1222.0257138067236 386.84471426981986Q1222.0257138067236 371.17756867710347 1227.2983108811954 358.17900282820136Q1232.5709079556673 345.15891617491366 1242.319832342344 337.4759890092547Q1252.0902775334062 329.8145826479813 1265.110364186694 329.8145826479813L1265.110364186694 329.8145826479813Q1271.9109383725431 329.8145826479813 1277.9582844048964 332.9135784795076Q1284.0056304372501 336.0125743110339 1287.8793752266579 339.5850278390434L1287.8793752266579 339.5850278390434Q1291.6024743853668 342.98531493196816 1292.829160235346 342.98531493196816L1292.829160235346 342.98531493196816Q1294.0773668897104 342.98531493196816 1294.6153869993504 342.21056597408653Q1295.1534071089905 341.43581701620496 1295.777510436173 339.7356734697426L1295.777510436173 339.7356734697426L1298.725860637 331.062789302346L1302.5996054264078 331.062789302346L1303.2237087535905 379.09722469100404L1298.8765062676994 379.09722469100404Q1295.4762191747745 364.37699449125404 1290.0529764696034 354.36982045195026Q1284.6297337644323 344.3841672170321 1278.1950132531383 339.5850278390434Q1271.7602927418438 334.76436765666915 1265.411655448092 334.76436765666915L1265.411655448092 334.76436765666915Q1250.691425248342 334.76436765666915 1244.5795168028317 348.1072663757408Q1238.446087552936 361.4286442904269 1238.446087552936 386.84471426981986L1238.446087552936 386.84471426981986Q1238.446087552936 413.01401240270883 1244.7947248466876 426.89493123142046Q1251.1648829448254 440.75432925574654 1267.886547952436 440.75432925574654L1267.886547952436 440.75432925574654Q1282.7574237828853 440.75432925574654 1290.5909965792434 429.6711149971628Q1298.4245693756015 418.60942154296464 1299.5006095948816 402.79163031954903L1299.5006095948816 402.79163031954903L1305.074497930752 402.79163031954903Q1304.6225610386546 411.9379721834288 1301.2868363588864 421.708417374491Q1297.9511116791186 431.4573417611676 1289.7301644038198 438.580728012801Q1281.530737932906 445.72563506882 1267.886547952436 445.72563506882L1267.886547952436 445.72563506882ZM1319.3427912384045 442.9279304986921L1319.3427912384045 439.2048313399834L1327.3915720786185 439.2048313399834Q1329.24236125578 439.2048313399834 1330.017110213662 438.4300823821018Q1330.7918591715434 437.6553334242202 1330.7918591715434 435.80454424705863L1330.7918591715434 435.80454424705863L1330.7918591715434 339.7356734697426Q1330.7918591715434 337.86336348819543 1330.017110213662 337.08861453031386Q1329.24236125578 336.3138655724323 1327.3915720786185 336.3138655724323L1327.3915720786185 336.3138655724323L1319.3427912384045 336.3138655724323L1319.3427912384045 332.6122872181092L1341.9611566476697 332.6122872181092L1341.9611566476697 435.80454424705863Q1341.9611566476697 437.6553334242202 1342.7359056055511 438.4300823821018Q1343.5106545634326 439.2048313399834 1345.361443740594 439.2048313399834L1345.361443740594 439.2048313399834L1353.431745385194 439.2048313399834L1353.431745385194 442.9279304986921L1319.3427912384045 442.9279304986921ZM1392.4704845406714 444.7787196758536Q1381.1505414338462 444.7787196758536 1376.4374852733995 437.8059790549194Q1371.7029083085677 430.8332384339852 1371.7029083085677 421.0843140473086L1371.7029083085677 421.0843140473086L1371.7029083085677 379.3985159524024Q1371.7029083085677 377.5477267752409 1370.9281593506862 376.77297781735933Q1370.1534103928047 375.9982288594777 1368.3026212156433 375.9982288594777L1368.3026212156433 375.9982288594777L1361.7818174868066 375.9982288594777L1361.7818174868066 372.275129700769L1382.872205784694 372.275129700769L1382.872205784694 424.03266424813575Q1382.872205784694 430.8332384339852 1385.5838271372795 435.65389861635947Q1388.295448489865 440.4530379943481 1394.7947314143162 440.4530379943481L1394.7947314143162 440.4530379943481Q1400.2179741194873 440.4530379943481 1404.4790933878357 436.643855618097Q1408.7402126561847 432.8561940462315 1411.1505427473717 426.27082790423805Q1413.5393520341731 419.68546176224464 1413.5393520341731 411.63668092203045L1413.5393520341731 411.63668092203045L1413.5393520341731 379.3985159524024Q1413.5393520341731 377.5477267752409 1412.7646030762917 376.77297781735933Q1411.9898541184102 375.9982288594777 1410.1390649412488 375.9982288594777L1410.1390649412488 375.9982288594777L1403.618261212412 375.9982288594777L1403.618261212412 372.275129700769L1424.7086495102994 372.275129700769L1424.7086495102994 435.80454424705863Q1424.7086495102994 437.6553334242202 1425.483398468181 438.4300823821018Q1426.2581474260624 439.2048313399834 1428.1089366032243 439.2048313399834L1428.1089366032243 439.2048313399834L1434.6082195276754 439.2048313399834L1434.6082195276754 442.9279304986921L1413.5393520341731 442.9279304986921L1413.5393520341731 430.23065591118836L1412.915248706991 430.0584894761036Q1409.3643159833669 437.504687793521 1404.091718908895 441.1417037346873Q1398.8191218344232 444.7787196758536 1392.4704845406714 444.7787196758536L1392.4704845406714 444.7787196758536ZM1484.1921528320963 444.7787196758536Q1477.9941611690438 444.7787196758536 1472.7430848989575 440.6036836250473Q1467.4704878244856 436.428647574241 1464.3714919929594 429.606552584006L1464.3714919929594 429.606552584006L1463.7473886657767 429.606552584006L1457.2481057413256 442.9279304986921L1454.4504011711979 442.9279304986921L1454.4504011711979 339.7356734697426Q1454.4504011711979 337.86336348819543 1453.6756522133164 337.08861453031386Q1452.9009032554345 336.3138655724323 1451.050114078273 336.3138655724323L1451.050114078273 336.3138655724323L1442.9798124336735 336.3138655724323L1442.9798124336735 332.6122872181092L1465.5981778429382 332.6122872181092L1465.5981778429382 383.7457184382935L1466.2222811701208 383.89636406899274Q1468.5465280437656 378.3224757331225 1473.3456674217541 374.36264772617216Q1478.1663276041286 370.40281971922184 1484.1921528320963 370.40281971922184L1484.1921528320963 370.40281971922184Q1491.4877055188144 370.40281971922184 1497.750259595024 375.28804231475294Q1504.0343344756188 380.173264910284 1507.7574336343278 388.69550344698143Q1511.4805327930362 397.21774198367876 1511.4805327930362 407.5907696975377L1511.4805327930362 407.5907696975377Q1511.4805327930362 417.9853182157823 1507.7574336343278 426.5075567524797Q1504.0343344756188 435.02979528917706 1497.750259595024 439.91501788470816Q1491.4877055188144 444.7787196758536 1484.1921528320963 444.7787196758536L1484.1921528320963 444.7787196758536ZM1482.4920092856341 440.4530379943481Q1490.0888532337508 440.4530379943481 1493.9625980231585 431.9307994576507Q1497.8363428125663 423.40856092095333 1497.8363428125663 407.5907696975377L1497.8363428125663 407.5907696975377Q1497.8363428125663 391.7944992785077 1493.9625980231585 383.2722607418103Q1490.0888532337508 374.75002220511294 1482.4920092856341 374.75002220511294L1482.4920092856341 374.75002220511294Q1477.8435155383445 374.75002220511294 1473.9697707489363 378.15030929803766Q1470.0960259595286 381.57211719534797 1467.8578623034264 387.533380010159Q1465.5981778429382 393.4946428249701 1465.5981778429382 400.4673834459043L1465.5981778429382 400.4673834459043L1465.5981778429382 414.7356767535568Q1465.5981778429382 421.708417374491 1467.8578623034264 427.669680189302Q1470.0960259595286 433.6309430041131 1473.9697707489363 437.03123009703785Q1477.8435155383445 440.4530379943481 1482.4920092856341 440.4530379943481L1482.4920092856341 440.4530379943481Z " fill="white" transform="matrix(0.5789025985130781,0,0,0.5789025985130781,0,65.65174342620038)"/></g></svg>